<svg xmlns="http://www.w3.org/2000/svg" fill="none" viewBox="0 0 11.667 15">
  <path d="M11.667 12.5L11.6533 12.7559C11.5337 13.9325 10.5986 14.868 9.42188 14.9873L9.16699 15H2.5C1.11929 15 0 13.8807 0 12.5V0H11.667V12.5ZM1 12.5C1 13.3284 1.67157 14 2.5 14H9.16699C9.99527 13.9998 10.667 13.3283 10.667 12.5V4.67773H1V12.5ZM1 3.6543H10.667V1H1V3.6543ZM8.75098 1.66699C9.21121 1.66699 9.58496 2.03976 9.58496 2.5C9.58487 2.96016 9.21116 3.33301 8.75098 3.33301C8.29094 3.33283 7.91806 2.96005 7.91797 2.5C7.91797 2.03987 8.29089 1.66717 8.75098 1.66699Z" fill="black"/>
</svg>
